<svg width="32" height="29" viewBox="0 0 32 29" fill="none" xmlns="http://www.w3.org/2000/svg">
<path fill-rule="evenodd" clip-rule="evenodd" d="M14.9988 0.0703426C13.8466 0.333137 12.792 1.02281 12.1444 1.93674C11.7996 2.42348 0.713986 21.6025 0.429517 22.2045C0.0936625 22.9154 -0.00191146 23.3626 2.88156e-05 24.2153C0.00134319 24.8017 0.0325753 25.0746 0.142795 25.4628C0.568215 26.9612 1.65571 28.1671 3.05251 28.6895C3.91243 29.0111 3.39131 28.9985 15.9351 28.9997C28.5871 29.0008 28.0833 29.0138 28.9429 28.6667C29.5899 28.4055 30.0183 28.1143 30.5709 27.5602C31.1694 26.9599 31.4523 26.5238 31.7036 25.8139C32.1527 24.5456 32.092 23.3525 31.5175 22.1509C31.2451 21.5812 20.4656 2.89258 19.9786 2.14586C19.3517 1.18433 18.3038 0.420026 17.208 0.124953C16.6906 -0.014357 15.4992 -0.0438206 14.9988 0.0703426ZM16.7759 8.70177C17.2999 8.958 17.6377 9.43479 17.7361 10.057C17.7685 10.2614 17.7225 11.427 17.6072 13.3228C17.5086 14.9442 17.4031 16.8554 17.3728 17.57C17.3221 18.7635 17.3052 18.8932 17.1655 19.1646C16.9484 19.5862 16.59 19.8211 16.1109 19.8557C15.4609 19.9027 14.9943 19.6363 14.762 19.0857C14.6594 18.8424 14.6117 18.155 14.1962 10.9217C14.1474 10.0729 14.2391 9.65248 14.5668 9.22179C14.7834 8.9371 15.3253 8.57197 15.6034 8.52324C15.9435 8.46369 16.4453 8.54013 16.7759 8.70177ZM16.7759 21.3379C17.7851 21.8314 18.0542 23.2212 17.3052 24.0716C16.2259 25.297 14.2272 24.5354 14.2272 22.8988C14.2272 21.5774 15.5763 20.7513 16.7759 21.3379Z" fill="#F2C94C"/>
</svg>
