<svg width="29" height="29" viewBox="0 0 29 29" fill="none" xmlns="http://www.w3.org/2000/svg">
<path fill-rule="evenodd" clip-rule="evenodd" d="M13.1993 0.0343151C10.3971 0.308674 7.80712 1.34104 5.53629 3.0888C4.43045 3.9399 2.99435 5.53942 2.16445 6.84421C1.80604 7.40774 1.10834 8.8357 0.858401 9.51717C0.578946 10.2792 0.2811 11.4437 0.134533 12.3473C-0.0448444 13.4532 -0.0448444 15.553 0.134533 16.659C0.388159 18.2224 0.789374 19.4863 1.47612 20.8855C2.22644 22.4142 3.00662 23.4978 4.25596 24.7465C5.50536 25.9951 6.58957 26.7748 8.1191 27.5247C9.51915 28.2111 10.7838 28.6121 12.3481 28.8655C13.4547 29.0448 15.5557 29.0448 16.6622 28.8655C18.2266 28.6121 19.4912 28.2111 20.8912 27.5247C22.4208 26.7748 23.505 25.9951 24.7544 24.7465C26.0037 23.4978 26.7839 22.4142 27.5342 20.8855C28.0326 19.8701 28.2832 19.2047 28.5517 18.1842C28.9093 16.8252 29 16.0803 29 14.5031C29 12.926 28.9093 12.181 28.5517 10.822C28.2832 9.80157 28.0326 9.1361 27.5342 8.1207C26.7839 6.59204 26.0037 5.50844 24.7544 4.25976C23.505 3.01113 22.4208 2.2314 20.8912 1.48151C19.4925 0.79578 18.2029 0.386681 16.6906 0.148915C15.8562 0.0177492 13.9931 -0.0434085 13.1993 0.0343151ZM22.3893 7.99634C22.8089 8.27393 22.9902 8.87547 22.7943 9.34045C22.7234 9.50895 13.9285 19.4606 13.5347 19.818C13.2379 20.0874 12.6374 20.1523 12.3067 19.9508C12.0971 19.823 6.79863 15.601 6.51066 15.3323C6.23955 15.0792 6.14237 14.8604 6.14237 14.5031C6.14237 14.0591 6.37051 13.693 6.7782 13.483C6.93453 13.4024 7.36713 13.3809 7.59488 13.4422C7.68122 13.4655 8.83894 14.3535 10.1676 15.4155C11.4963 16.4775 12.6161 17.359 12.6559 17.3743C12.699 17.3908 14.4195 15.5004 16.8932 12.7186C19.9777 9.24996 21.1174 8.00496 21.2868 7.91873C21.6077 7.75551 22.0748 7.78841 22.3893 7.99634Z" fill="#1CD269"/>
</svg>
