<svg width="14" height="20" viewBox="0 0 14 20" fill="none" xmlns="http://www.w3.org/2000/svg">
<path fill-rule="evenodd" clip-rule="evenodd" d="M6.48925 0.00875806C4.92941 0.182002 3.86058 0.588767 2.73085 1.43904C0.686901 2.97737 -0.401543 5.74283 0.136837 8.0296C0.519703 9.65572 1.65543 12.0062 3.4845 14.9579C4.43847 16.4974 6.75256 19.8635 6.93543 19.9777C6.98295 20.0074 7.02179 20.0074 7.06931 19.9777C7.25218 19.8635 9.56627 16.4974 10.5202 14.9579C12.3493 12.0062 13.485 9.65572 13.8679 8.0296C14.1696 6.74821 13.947 5.17372 13.2778 3.85559C12.2483 1.82786 10.3609 0.45 8.10755 0.081269C7.77015 0.0260356 6.74656 -0.0198163 6.48925 0.00875806ZM7.50546 4.50467C8.67762 4.74444 9.49676 5.73911 9.49865 6.92497C9.50189 8.93128 7.26067 10.1019 5.57669 8.97345C5.10699 8.6587 4.71473 8.09707 4.56908 7.53086C4.33719 6.62934 4.68773 5.58913 5.41967 5.0065C6.01071 4.5361 6.76823 4.35382 7.50546 4.50467Z" fill="white"/>
</svg>
