<svg width="29" height="29" viewBox="0 0 29 29" fill="none" xmlns="http://www.w3.org/2000/svg">
<path fill-rule="evenodd" clip-rule="evenodd" d="M12.6687 0.0805042C7.31812 0.810226 2.90878 4.26623 0.950883 9.2649C0.289854 10.9525 0 12.5478 0 14.4979C0 16.9322 0.4811 18.9638 1.55885 21.081C3.77623 25.4369 8.07343 28.4098 12.9209 28.9418C13.6151 29.0181 15.3898 29.0197 16.0651 28.9447C22.8346 28.1935 28.2103 22.8225 28.9425 16.0786C29.0182 15.3819 29.0194 13.6068 28.9447 12.9337C28.4048 8.06558 25.4429 3.7695 21.1058 1.56378C19.5188 0.756644 18.0837 0.314739 16.2832 0.0786271C15.4772 -0.0270571 13.4496 -0.0259764 12.6687 0.0805042ZM15.1552 5.47444C15.8514 5.66078 16.553 6.21064 16.855 6.80681C17.3894 7.86149 17.2258 9.00729 16.4174 9.87165C15.3708 10.9907 13.6317 10.9907 12.5851 9.87165C12.222 9.48338 12.0452 9.16331 11.9125 8.65366C11.4958 7.05356 12.7888 5.41084 14.4728 5.40078C14.6917 5.39947 14.9988 5.43263 15.1552 5.47444ZM15.3266 12.7349C15.8028 12.8988 16.0824 13.0783 16.4241 13.4397C16.7592 13.7941 17.0283 14.314 17.1159 14.7761C17.151 14.9609 17.1737 16.2917 17.1732 18.1318C17.1722 21.4393 17.1608 21.5855 16.855 22.189C16.773 22.351 16.5603 22.6291 16.3824 22.807C15.5302 23.6595 14.3357 23.8357 13.2248 23.273C12.8591 23.0878 12.3362 22.5617 12.1474 22.189C11.8416 21.5855 11.8302 21.4393 11.8293 18.1318C11.8288 16.2917 11.8515 14.9609 11.8865 14.7761C12.012 14.1145 12.4572 13.4394 13.0303 13.0422C13.6209 12.6328 14.6354 12.497 15.3266 12.7349Z" fill="white"/>
</svg>
