<svg width="18" height="11" viewBox="0 0 18 11" fill="none" xmlns="http://www.w3.org/2000/svg">
<path fill-rule="evenodd" clip-rule="evenodd" d="M0.271867 0.0589076C0.208286 0.0904875 0.121104 0.16596 0.0781292 0.226635L0 0.336987V5.49976V10.6625L0.0785519 10.7735C0.252775 11.0195 -0.53056 10.9996 9 10.9996C18.5306 10.9996 17.7472 11.0195 17.9214 10.7735L18 10.6625V5.49976V0.336987L17.9214 0.226032C17.7472 -0.019971 18.5314 -0.000171468 8.99468 0.000715606C1.13798 0.00146075 0.377401 0.00653479 0.271867 0.0589076ZM14.3812 1.69701C14.5308 1.80453 14.5941 1.93329 14.6226 2.18792C14.6603 2.52508 14.7623 2.75132 14.9714 2.96195C15.1832 3.1753 15.407 3.27675 15.7543 3.31685C16.0105 3.3464 16.1672 3.43962 16.2616 3.61859C16.3225 3.73416 16.3268 3.85736 16.3268 5.49976C16.3268 7.14216 16.3225 7.26535 16.2616 7.38092C16.1672 7.5599 16.0105 7.65311 15.7543 7.68267C15.0974 7.7585 14.6956 8.15928 14.6226 8.81159C14.5941 9.06622 14.5308 9.19499 14.3812 9.3025L14.2661 9.38514H9H3.73386L3.61885 9.3025C3.46921 9.19499 3.40587 9.06622 3.37738 8.81159C3.33965 8.47443 3.23767 8.2482 3.02858 8.03757C2.81677 7.82421 2.59299 7.72276 2.2457 7.68267C1.98955 7.65311 1.83283 7.5599 1.73843 7.38092C1.67745 7.26535 1.67319 7.14216 1.67319 5.49976C1.67319 3.85736 1.67745 3.73416 1.73843 3.61859C1.83283 3.43962 1.98955 3.3464 2.2457 3.31685C2.90261 3.24102 3.30436 2.84024 3.37738 2.18792C3.41155 1.88248 3.52708 1.70777 3.75147 1.62204C3.78053 1.61097 6.15822 1.60469 9.03522 1.60813L14.2661 1.61437L14.3812 1.69701ZM4.37072 2.74082C4.26001 3.12939 3.99364 3.55778 3.69592 3.82599C3.5156 3.98843 3.17388 4.18416 2.82681 4.32382L2.72994 4.36278V5.49976V6.63674L2.82681 6.6757C2.88011 6.69713 3.05665 6.77853 3.21918 6.85652C3.70099 7.0878 4.14874 7.59506 4.31947 8.10307L4.38066 8.28517H9H13.6193L13.6805 8.10307C13.8513 7.59506 14.299 7.0878 14.7808 6.85652C14.9433 6.77853 15.1199 6.69713 15.1732 6.6757L15.2701 6.63674V5.49976V4.36278L15.1732 4.32382C15.1199 4.30238 14.9433 4.22099 14.7808 4.143C14.299 3.91172 13.8513 3.40445 13.6805 2.89644L13.6193 2.71435L9.00137 2.70533C5.32381 2.69817 4.38083 2.7054 4.37072 2.74082ZM9.58121 3.28839C10.1552 3.43241 10.7246 3.88652 10.997 4.41753C11.1922 4.79798 11.2631 5.08627 11.2631 5.49976C11.2631 6.12745 11.0389 6.67662 10.6036 7.11508C10.1683 7.55355 9.62313 7.7794 9 7.7794C8.37687 7.7794 7.83169 7.55355 7.39641 7.11508C6.96114 6.67662 6.73693 6.12745 6.73693 5.49976C6.73693 4.87206 6.96114 4.32289 7.39641 3.88443C7.97308 3.30354 8.77245 3.08546 9.58121 3.28839ZM8.57448 4.37466C8.31611 4.48413 8.14533 4.61879 8.01648 4.81476C7.60002 5.44809 7.82546 6.27513 8.50164 6.59448C8.66793 6.673 8.74973 6.68844 9 6.68844C9.35958 6.68844 9.60982 6.58866 9.8454 6.35135C10.081 6.11404 10.18 5.86197 10.18 5.49976C10.18 5.13755 10.081 4.88548 9.8454 4.64817C9.51827 4.31864 8.98017 4.20282 8.57448 4.37466Z" fill="white"/>
</svg>
