<svg width="29" height="29" viewBox="0 0 29 29" fill="none" xmlns="http://www.w3.org/2000/svg">
<path fill-rule="evenodd" clip-rule="evenodd" d="M13.1684 0.0584601C7.04158 0.628352 1.9431 4.98627 0.446771 10.9323C-1.16595 17.3405 1.6825 23.9468 7.45641 27.1899C10.2434 28.7553 13.683 29.3431 16.9082 28.8051C22.5672 27.8612 27.1536 23.634 28.5532 18.0722C30.1659 11.664 27.3175 5.05772 21.5436 1.81466C19.0932 0.438294 16.0179 -0.206568 13.1684 0.0584601ZM9.88187 8.50082C10.0735 8.55261 10.4477 8.90031 12.3046 10.7524L14.5007 12.9427L16.5544 10.8947C17.684 9.76827 18.6898 8.80591 18.7895 8.75616C18.9975 8.6524 19.4052 8.63778 19.6386 8.72578C19.8549 8.80738 20.1628 9.10743 20.2582 9.32967C20.3629 9.57379 20.3572 9.98967 20.2459 10.2126C20.1962 10.3124 19.2338 11.3182 18.1075 12.4478L16.0595 14.5016L18.2501 16.6978C20.2051 18.6577 20.4478 18.9208 20.5065 19.1437C20.658 19.7192 20.2995 20.347 19.7288 20.5055C19.4612 20.5798 19.3992 20.5796 19.1181 20.5037C18.9265 20.4519 18.5523 20.1042 16.6954 18.2522L14.4993 16.0618L12.2473 18.3082C11.0086 19.5438 9.90822 20.5981 9.80197 20.6512C9.51406 20.7952 9.01757 20.7462 8.75805 20.5483C8.43574 20.3025 8.30377 20.0732 8.27782 19.7142C8.26139 19.4875 8.28292 19.3372 8.35126 19.2005C8.40441 19.0942 9.4587 17.9938 10.6942 16.7551L12.9405 14.503L10.7499 12.3068C8.79494 10.3469 8.55219 10.0838 8.49348 9.86081C8.34655 9.30259 8.65917 8.71824 9.20966 8.52201C9.47876 8.42607 9.59186 8.4225 9.88187 8.50082Z" fill="#EB5757"/>
</svg>
