<svg width="15" height="12" viewBox="0 0 15 12" fill="none" xmlns="http://www.w3.org/2000/svg">
<path fill-rule="evenodd" clip-rule="evenodd" d="M1.18652 0.0202721C0.8429 0.0668772 0.520518 0.256586 0.316846 0.532051C0.0497168 0.893334 0.00120117 1.11374 0.000498047 1.96957L0 2.58816H7.5H15L14.9995 1.96957C14.9988 1.11374 14.9503 0.893334 14.6832 0.532051C14.5484 0.349734 14.3091 0.170705 14.0698 0.0729847L13.9014 0.00420462L7.63184 0.000320848C4.18359 -0.00184027 1.2832 0.00714877 1.18652 0.0202721ZM0.000498047 7.35672C0.00105469 10.8675 0.00222657 10.899 0.142207 11.1923C0.299854 11.5227 0.585322 11.7904 0.930205 11.9312L1.09863 12H7.5H13.9014L14.0698 11.9312C14.4147 11.7904 14.7001 11.5227 14.8578 11.1923C14.9978 10.899 14.9989 10.8675 14.9995 7.35672L15 4.06022H7.5H0L0.000498047 7.35672ZM13.2422 5.90814V6.44059H11.6455H10.0488V5.90814V5.37569H11.6455H13.2422V5.90814ZM13.2422 7.70908V8.22587H11.6455H10.0488V7.70908V7.19229H11.6455H13.2422V7.70908ZM13.2422 9.49435V10.0111H11.6455H10.0488V9.49435V8.97756H11.6455H13.2422V9.49435Z" fill="white"/>
</svg>
