<svg width="29" height="36" viewBox="0 0 29 36" fill="none" xmlns="http://www.w3.org/2000/svg">
<path fill-rule="evenodd" clip-rule="evenodd" d="M14.076 0.0192436C13.9594 0.038566 13.5969 0.0972925 13.2704 0.149691C10.3862 0.612921 8.03436 2.88317 7.41795 5.79916C7.23826 6.64884 7.23334 18.6244 7.41227 19.4641C7.80972 21.3296 8.90924 22.941 10.5129 24.0083C11.7444 24.828 13.0054 25.2009 14.5368 25.1983C15.5317 25.1965 16.2333 25.0648 17.1732 24.7032C19.4211 23.8384 21.2122 21.6545 21.6239 19.2769C21.6863 18.9165 21.7079 16.6629 21.6908 12.29L21.6656 5.83519L21.4225 5.11798C21.2888 4.72352 21.0832 4.21093 20.9656 3.97889C20.0246 2.12268 18.2961 0.726155 16.3154 0.222086C15.6958 0.06447 14.4721 -0.0464018 14.076 0.0192436ZM6.30906e-07 18.1332C0.00347742 18.6417 0.204707 20.3218 0.338436 20.959C1.52351 26.6058 6.06157 31.0476 11.7652 32.1435L12.7192 32.3269V34.1634V36H14.5H16.2808V34.1634V32.3269L17.2348 32.1435C18.5934 31.8825 19.6259 31.5282 20.9872 30.8557C24.8828 28.9314 27.7697 25.2085 28.6616 20.959C28.7953 20.3218 28.9965 18.6417 29 18.1332C29.0006 18.0521 28.5824 18.0277 27.1897 18.0277H25.3787L25.3205 18.7959C25.1196 21.4433 24.0583 23.7266 22.1429 25.6325C20.5688 27.1988 18.7985 28.1581 16.62 28.6254C15.6121 28.8415 13.3879 28.8415 12.38 28.6254C10.199 28.1575 8.42732 27.197 6.85996 25.6325C4.92517 23.7012 3.88154 21.4578 3.67955 18.7959L3.62129 18.0277H1.81031C0.417555 18.0277 -0.000592968 18.0521 6.30906e-07 18.1332Z" fill="white"/>
</svg>
