<svg width="19" height="20" viewBox="0 0 19 20" fill="none" xmlns="http://www.w3.org/2000/svg">
<path fill-rule="evenodd" clip-rule="evenodd" d="M3.19133 0.0591822C3.0596 0.160983 3.03588 0.333168 3.03588 1.18817V2.03487L2.59223 2.05623C2.09037 2.08043 1.86752 2.15653 1.64963 2.37811C1.37977 2.65256 1.37567 2.67296 1.36151 3.80942L1.34863 4.84203H10.1743H19L18.9871 3.80942C18.973 2.67296 18.9689 2.65256 18.699 2.37811C18.4811 2.15653 18.2583 2.08043 17.7564 2.05623L17.3127 2.03487V1.16189C17.3127 0.278763 17.2967 0.16866 17.1522 0.0558027C17.0667 -0.0109937 16.8592 -0.00911617 16.7708 0.0591822C16.6389 0.161108 16.6153 0.333085 16.6153 1.19409V2.04668H15.2615H13.9076V1.13489C13.9076 0.224901 13.9074 0.222898 13.807 0.112711C13.6711 -0.0364856 13.4666 -0.0376955 13.3302 0.109916C13.2321 0.215972 13.2305 0.230533 13.217 1.1321L13.2033 2.04668H13.5554H13.9076V2.62515C13.9076 3.14721 13.8993 3.21434 13.8226 3.31356C13.7096 3.45971 13.4698 3.46701 13.3416 3.32824C13.2617 3.24171 13.2526 3.1798 13.2422 2.65026L13.2307 2.06754H11.8769H10.523L10.5115 2.65026C10.5011 3.1798 10.4921 3.24171 10.4121 3.32824C10.3516 3.3937 10.2772 3.42349 10.1743 3.42349C10.0714 3.42349 9.997 3.3937 9.93653 3.32824C9.85657 3.24171 9.84751 3.1798 9.83709 2.65026L9.8256 2.06754L8.48489 2.05652L7.14417 2.04555L7.13105 1.13151C7.11808 0.230116 7.11652 0.215972 7.01847 0.109874C6.88202 -0.0376956 6.67755 -0.0364856 6.54159 0.112711C6.4412 0.222898 6.441 0.224901 6.441 1.13489V2.04668H5.08716H3.73332V1.19409C3.73332 0.148967 3.6911 0.00498568 3.3846 0.00498568C3.31691 0.00498568 3.22993 0.0293512 3.19133 0.0591822ZM9.94683 0.104742L9.84611 0.207127V1.12692V2.04668H10.1743H10.5025V1.12692V0.207127L10.4018 0.104742C10.3383 0.0401571 10.2542 0.00231553 10.1743 0.00231553C10.0944 0.00231553 10.0103 0.0401571 9.94683 0.104742ZM3.73332 2.59115C3.73332 3.28352 3.67469 3.42349 3.3846 3.42349C3.09451 3.42349 3.03588 3.28352 3.03588 2.59115V2.04668H3.3846H3.73332V2.59115ZM7.13211 2.62748C7.11874 3.17479 7.11217 3.21451 7.01847 3.31589C6.87874 3.46705 6.64391 3.46596 6.52604 3.31356C6.44928 3.21434 6.441 3.14721 6.441 2.62515V2.04668H6.79365H7.14631L7.13211 2.62748ZM17.3127 2.59115C17.3127 3.28748 17.2548 3.42349 16.958 3.42349C16.6805 3.42349 16.6153 3.25969 16.6153 2.56198V2.04668H16.964H17.3127V2.59115ZM1.35384 8.18185C1.35384 10.3096 1.3643 10.8473 1.40512 10.8207C1.43335 10.8024 1.58563 10.7005 1.74358 10.5945C2.36914 10.1743 3.13057 9.86928 3.8733 9.74132C4.46533 9.63935 5.44789 9.67632 6.01023 9.82172C6.99168 10.0756 7.80042 10.5312 8.51561 11.2333C9.30388 12.0072 9.82519 12.9676 10.0578 14.0745C10.1629 14.5744 10.1846 15.6528 10.0987 16.1069C9.95602 16.8618 9.66859 17.5947 9.28488 18.1821C9.1536 18.3831 9.03114 18.5715 9.01284 18.6006C8.98597 18.6434 9.86835 18.6515 13.5872 18.6423L18.1948 18.631L18.4266 18.5153C18.6732 18.3921 18.8515 18.194 18.9385 17.9464C18.9804 17.8271 18.9915 16.5437 18.993 11.6531L18.9948 5.50958H10.1743H1.35384V8.18185ZM4.12191 10.39C1.74559 10.7329 0 12.7547 0 15.1641C0 16.5128 0.497393 17.7057 1.44902 18.6393C2.38436 19.5568 3.44011 19.9935 4.73844 19.9999C5.75755 20.0049 6.57655 19.7497 7.43656 19.1589C8.60751 18.3546 9.36365 17.021 9.47463 15.5645C9.58691 14.0902 9.05001 12.6767 7.99238 11.662C7.36649 11.0616 6.57482 10.6438 5.69671 10.4505C5.34197 10.3724 4.47465 10.3391 4.12191 10.39ZM4.92663 11.4458C5.08146 11.5667 5.08716 11.6381 5.08716 13.4576C5.08716 15.277 5.08146 15.3484 4.92663 15.4693C4.87912 15.5064 4.55284 15.5205 3.72121 15.5214L2.58087 15.5228L2.48019 15.4204C2.35142 15.2894 2.34637 15.0842 2.46867 14.9518C2.55675 14.8564 2.56951 14.8552 3.47244 14.8552H4.38698L4.39859 13.2245L4.41024 11.5936L4.52535 11.493C4.64942 11.3845 4.82205 11.3642 4.92663 11.4458Z" fill="white"/>
</svg>
