<svg width="35" height="36" viewBox="0 0 35 36" fill="none" xmlns="http://www.w3.org/2000/svg">
<path fill-rule="evenodd" clip-rule="evenodd" d="M17.0984 0.0192436C16.9823 0.038566 16.6213 0.0972925 16.2962 0.149691C13.4243 0.612921 11.0825 2.88317 10.4687 5.79916C10.3997 6.12671 10.3433 6.81919 10.3433 7.33803V8.28145L6.45914 4.40078L2.57496 0.520106L1.28752 1.80669L0 3.09319L16.2115 19.293L32.4229 35.4928L33.7115 34.2072L35 32.9217L31.9537 29.8768L28.9073 26.8318L29.4632 26.0125C30.8351 23.9905 31.6415 21.7115 31.8703 19.209C31.9191 18.6753 31.9592 18.1912 31.9594 18.1332C31.9595 18.0521 31.5404 18.0277 30.1442 18.0277H28.3288V18.3591C28.3288 19.3259 27.9823 20.9174 27.5215 22.0675C27.2217 22.8159 26.4927 24.1097 26.3428 24.1596C26.2964 24.1751 25.6918 23.6206 24.9994 22.9275L23.7404 21.6673L24.043 21.0058C24.6876 19.5965 24.6557 20.0377 24.6557 12.5432V5.83519L24.4136 5.11798C24.2805 4.72352 24.0757 4.21093 23.9586 3.97889C23.0217 2.12268 21.3005 0.726155 19.3283 0.222086C18.7113 0.06447 17.4928 -0.0464018 17.0984 0.0192436ZM3.08235 18.1332C3.08581 18.6417 3.28618 20.3218 3.41934 20.959C4.59937 26.6058 9.11811 31.0476 14.7975 32.1435L15.7474 32.3269V34.1634V36H17.5206H19.2938V34.1634V32.3269L20.2438 32.143C21.1673 31.9642 22.6459 31.5126 23.1137 31.2663L23.345 31.1446L21.9606 29.7631L20.5762 28.3816L20.0406 28.5152C17.6661 29.1077 14.9485 28.8076 12.7498 27.7103C10.7335 26.704 8.87054 24.8582 7.87374 22.8794C7.24188 21.6249 6.8538 20.2193 6.74623 18.7959L6.68822 18.0277H4.88495C3.49813 18.0277 3.08176 18.0521 3.08235 18.1332ZM10.3724 18.766C10.5404 20.5571 11.5575 22.4407 12.9781 23.5913C14.0303 24.4436 15.5204 25.0579 16.8029 25.168L17.3939 25.2187L13.8902 21.7075C11.963 19.7765 10.3712 18.1964 10.3527 18.1964C10.3342 18.1964 10.3431 18.4528 10.3724 18.766Z" fill="white" fill-opacity="0.5"/>
</svg>
